<svg width="220" height="260" viewBox="0 0 220 260" fill="none" xmlns="http://www.w3.org/2000/svg">
<g clip-path="url(#clip0_27_549)">
<path d="M220 0H0V260H220V0Z" fill="#0B4650"/>
<path opacity="0.5" d="M21.9998 31.9999C80.6664 13.3332 139.333 13.9999 198 33.9999C212.666 94.6666 212.333 154 197 212C139 234.667 81.3331 234 23.9998 210C7.99977 151.333 7.3331 91.9999 21.9998 31.9999Z" fill="#C6B5F0"/>
<path d="M165 90H55C49.4772 90 45 94.4772 45 100V166C45 171.523 49.4772 176 55 176H165C170.523 176 175 171.523 175 166V100C175 94.4772 170.523 90 165 90Z" fill="#F9CBFF" stroke="#0F0F0E" stroke-width="5"/>
<path d="M48 95L110 145L172 95" stroke="#0F0F0E" stroke-width="5" stroke-linecap="round" stroke-linejoin="round"/>
<path d="M140 70C140 56.6667 146.667 50 160 50H190C203.333 50 210 56.6667 210 70V76C210 89.3333 203.333 96 190 96H176L166 108V96H160C146.667 96 140 89.3333 140 76V70Z" fill="#B2F00D" stroke="#0F0F0E" stroke-width="3.5" stroke-linejoin="round"/>
<path d="M158 69C159.657 69 161 67.6569 161 66C161 64.3431 159.657 63 158 63C156.343 63 155 64.3431 155 66C155 67.6569 156.343 69 158 69Z" fill="#0F0F0E"/>
<path d="M170 69C171.657 69 173 67.6569 173 66C173 64.3431 171.657 63 170 63C168.343 63 167 64.3431 167 66C167 67.6569 168.343 69 170 69Z" fill="#0F0F0E"/>
<path d="M182 69C183.657 69 185 67.6569 185 66C185 64.3431 183.657 63 182 63C180.343 63 179 64.3431 179 66C179 67.6569 180.343 69 182 69Z" fill="#0F0F0E"/>
<path d="M35 200C55 193.333 68.3333 198.333 75 215" stroke="#0F0F0E" stroke-width="3.5" stroke-linecap="round"/>
<path d="M68 210L76 216L74 206" fill="#0F0F0E"/>
<path d="M55 66C58.3137 66 61 63.3137 61 60C61 56.6863 58.3137 54 55 54C51.6863 54 49 56.6863 49 60C49 63.3137 51.6863 66 55 66Z" fill="#0B4650"/>
<path d="M180 200L186 206L180 200ZM180 206L186 200L180 206Z" fill="#0F0F0E"/>
<path d="M180 200L186 206M180 206L186 200" stroke="#0F0F0E" stroke-width="4" stroke-linecap="round"/>
<path d="M20 130L25 135L20 130ZM20 135L25 130L20 135Z" fill="#0F0F0E"/>
<path d="M20 130L25 135M20 135L25 130" stroke="#0F0F0E" stroke-width="3.5" stroke-linecap="round"/>
</g>
<defs>
<clipPath id="clip0_27_549">
<rect width="220" height="260" fill="white"/>
</clipPath>
</defs>
</svg>
